<svg width="18" height="15" viewBox="0 0 18 15" fill="none" xmlns="http://www.w3.org/2000/svg">
<path d="M12.6364 14.0909V12.6364C12.6364 11.0297 11.3339 9.72727 9.72727 9.72727H3.90909C2.30244 9.72727 1 11.0297 1 12.6364V14.0909" stroke="#2D3A45" stroke-width="1.4" stroke-linecap="round" stroke-linejoin="round"/>
<path fill-rule="evenodd" clip-rule="evenodd" d="M6.81821 6.81818C8.42486 6.81818 9.7273 5.51574 9.7273 3.90909C9.7273 2.30244 8.42486 1 6.81821 1C5.21156 1 3.90912 2.30244 3.90912 3.90909C3.90912 5.51574 5.21156 6.81818 6.81821 6.81818Z" stroke="#2D3A45" stroke-width="1.4" stroke-linecap="round" stroke-linejoin="round"/>
<path d="M17 14.0909V12.6364C16.999 11.3106 16.1018 10.1533 14.8182 9.82182" stroke="#2D3A45" stroke-width="1.4" stroke-linecap="round" stroke-linejoin="round"/>
<path d="M11.9091 1.09455C13.1963 1.42413 14.0966 2.584 14.0966 3.91273C14.0966 5.24146 13.1963 6.40133 11.9091 6.73091" stroke="#2D3A45" stroke-width="1.4" stroke-linecap="round" stroke-linejoin="round"/>
</svg>
